<?xml version="1.0" standalone="no"?>
<!DOCTYPE svg PUBLIC "-//W3C//DTD SVG 20010904//EN"
 "http://www.w3.org/TR/2001/REC-SVG-20010904/DTD/svg10.dtd">
<svg version="1.0" xmlns="http://www.w3.org/2000/svg"
 width="526.000000pt" height="296.000000pt" viewBox="0 0 526.000000 296.000000"
 preserveAspectRatio="xMidYMid meet">

<g transform="translate(0.000000,296.000000) scale(0.100000,-0.100000)"
fill="#000000" stroke="none">
<path d="M0 1480 l0 -1480 2630 0 2630 0 0 1480 0 1480 -2630 0 -2630 0 0
-1480z m3990 1280 c12 -23 1 -33 -19 -18 -9 7 4 -10 29 -36 25 -27 38 -45 30
-41 -13 8 -13 7 0 -9 8 -11 16 -14 18 -7 2 6 8 9 13 5 15 -9 10 -24 -7 -24 -8
0 -22 -7 -30 -15 -9 -8 -11 -15 -5 -15 5 0 13 5 16 10 3 6 10 10 16 10 14 0
11 -26 -6 -40 -8 -7 -15 -17 -15 -23 0 -6 7 -1 16 11 17 25 39 30 30 7 -3 -8
0 -14 7 -12 7 1 13 -10 15 -25 5 -39 -26 -52 -109 -46 -46 4 -76 12 -96 26
-22 15 -33 18 -47 10 -13 -7 -21 -6 -29 2 -9 10 -9 11 3 5 9 -5 12 -4 7 1 -5
5 -16 9 -25 9 -11 0 -18 10 -20 28 -3 24 0 27 25 27 17 0 33 -8 41 -20 14 -23
0 -27 -22 -5 -16 16 -26 19 -26 8 0 -5 14 -16 30 -25 17 -9 30 -13 30 -7 0 6
6 7 13 3 6 -4 4 2 -5 13 -20 21 -24 38 -8 28 6 -3 10 3 10 13 0 11 3 34 7 52
5 29 4 32 -12 27 -13 -6 -16 -3 -11 9 3 8 6 22 6 30 0 8 6 14 14 14 8 0 21 8
28 19 23 33 70 34 88 1z m-1286 -131 c38 -30 70 -97 59 -123 -5 -12 -6 -34 -2
-51 5 -23 7 -25 8 -8 l1 22 23 -23 c32 -32 31 -59 -4 -80 -23 -14 -33 -15 -44
-6 -12 10 -12 14 2 28 13 13 13 17 2 21 -15 4 -29 21 -29 34 0 5 5 5 11 1 8
-5 10 4 7 29 -2 20 -1 34 3 31 4 -2 10 0 13 5 7 10 -19 9 -30 -2 -3 -3 -8 -19
-9 -34 -2 -15 -8 -40 -14 -55 -6 -18 -7 -28 -1 -28 21 0 10 -71 -14 -94 -12
-13 -26 -31 -29 -41 -4 -9 -12 -13 -18 -10 -7 5 -4 13 7 26 19 22 13 23 -35 9
-41 -12 -52 -5 -25 15 10 8 14 15 8 15 -6 0 -17 -7 -24 -15 -7 -8 -17 -15 -22
-15 -6 0 -4 8 3 17 12 15 12 16 -3 10 -14 -5 -18 -1 -18 18 0 25 19 46 21 23
0 -11 2 -11 6 0 3 7 16 18 30 23 22 8 24 14 19 42 -5 26 -2 38 14 52 11 10 17
22 14 26 -3 5 2 6 10 3 9 -3 20 -20 25 -38 l8 -31 15 35 15 35 -44 12 c-24 6
-50 17 -58 23 -8 7 -15 8 -15 3 0 -6 -22 -13 -49 -16 -28 -3 -63 -13 -80 -21
l-30 -16 15 42 c8 24 22 53 30 66 38 57 176 82 228 41z m353 -75 c13 -4 26
-19 33 -38 6 -18 33 -59 60 -91 28 -33 53 -67 56 -77 4 -15 9 -16 26 -7 12 6
45 9 82 5 33 -3 67 -5 75 -5 11 -1 11 -4 0 -18 -7 -10 -2 -8 12 5 31 27 75 31
63 5 -4 -10 -10 -46 -12 -80 -4 -69 -16 -79 -51 -44 -13 13 -21 16 -24 8 -2
-7 -12 5 -22 26 -10 21 -20 35 -23 33 -2 -3 -17 3 -32 14 l-28 20 -4 -35 c-3
-24 1 -40 11 -48 12 -10 13 -9 6 2 -6 11 -4 13 10 7 18 -6 18 -6 2 12 -24 27
-23 46 2 30 11 -7 18 -15 16 -18 -2 -3 4 -14 12 -25 16 -20 16 -20 9 0 -5 14
1 11 18 -10 32 -38 32 -45 1 -45 -14 0 -25 5 -25 12 0 6 -3 8 -7 5 -3 -4 -12
-2 -20 5 -11 9 -12 7 -4 -13 12 -32 87 -192 140 -299 37 -76 53 -140 34 -140
-5 0 -21 9 -38 21 -16 11 -51 31 -77 44 -25 14 -74 50 -107 81 -34 31 -64 54
-68 51 -3 -4 0 -13 7 -22 15 -18 9 -19 -24 -4 -15 7 -22 17 -19 26 3 8 2 18
-3 22 -5 3 -17 24 -28 46 -11 24 -21 34 -24 26 -4 -11 -6 -11 -13 0 -6 11 -9
9 -9 -7 0 -20 -38 -79 -46 -72 -2 2 8 26 21 53 14 26 25 63 25 81 0 48 9 67
26 53 8 -6 11 -15 8 -20 -3 -5 0 -8 7 -7 6 2 14 -3 17 -11 3 -10 0 -11 -9 -5
-22 13 82 -104 158 -177 37 -37 79 -70 93 -74 l24 -8 -25 34 c-15 19 -29 44
-33 57 -8 25 -119 142 -201 211 l-50 42 43 -23 c23 -13 78 -56 122 -95 44 -40
83 -73 86 -73 14 0 -63 91 -104 123 -26 19 -76 61 -112 92 -68 59 -117 92 -93
63 7 -8 9 -19 5 -23 -4 -5 0 -4 8 0 12 7 13 6 3 -7 -11 -12 -9 -17 10 -25 19
-9 23 -17 19 -42 -2 -17 -8 -33 -12 -36 -5 -3 -6 4 -3 16 5 16 2 20 -13 17
-10 -2 -30 -26 -46 -58 -32 -65 -37 -42 -9 43 21 64 15 71 -23 26 -14 -17 -26
-26 -26 -21 0 11 44 67 70 90 13 12 12 13 -5 7 -17 -5 -17 -3 4 19 18 19 38
27 85 32 48 6 56 9 36 15 -14 4 -18 7 -9 8 9 1 22 8 29 16 11 14 10 14 -16 5
-15 -6 -40 -10 -54 -8 -14 1 -31 -1 -38 -6 -11 -7 -11 -4 -1 12 7 12 17 18 21
16 11 -7 10 29 -2 60 -9 24 -14 26 -68 26 -47 0 -67 -6 -103 -28 l-44 -28 -23
28 c-26 31 -25 32 12 18 29 -11 76 5 76 25 0 13 58 70 80 78 21 8 41 8 67 1z
m794 -62 c-28 -4 -40 6 -21 18 9 6 20 4 29 -3 12 -10 11 -13 -8 -15z m-1267
-28 c-37 -30 -122 -50 -159 -37 l-27 9 44 22 c45 22 145 43 162 34 5 -3 -4
-16 -20 -28z m1410 1 c-4 -8 -10 -12 -15 -9 -14 8 -10 24 6 24 9 0 12 -6 9
-15z m-957 -55 c-1 -17 -5 -30 -8 -30 -3 0 -11 -11 -16 -23 -6 -13 -36 -45
-66 -71 l-55 -46 -31 29 c-18 17 -48 36 -67 43 -19 6 -34 15 -34 20 0 9 62 43
73 40 11 -3 8 12 -5 28 -11 12 -10 12 3 2 12 -9 19 -9 29 1 7 7 10 7 7 1 -4
-6 11 -3 32 8 38 19 120 38 133 31 4 -2 6 -17 5 -33z m798 -59 c19 -16 31 -33
27 -37 -4 -4 -2 -4 5 0 12 7 83 -18 83 -29 0 -4 -5 -16 -11 -28 -9 -20 -9 -20
4 -5 25 31 37 1 15 -40 -12 -23 -17 -48 -14 -64 3 -16 3 -42 -1 -59 -10 -51
-23 -11 -18 56 l4 60 -10 -50 c-5 -27 -7 -76 -4 -108 l6 -58 -27 3 c-19 2 -37
17 -61 52 -28 40 -32 55 -28 90 l5 41 -10 -39 c-8 -29 -7 -44 5 -65 8 -14 21
-39 29 -56 8 -16 30 -44 50 -62 25 -22 36 -40 36 -60 0 -15 1 -73 2 -128 2
-99 2 -100 -25 -113 -15 -7 -46 -17 -69 -22 l-43 -9 40 4 c22 2 51 7 65 11 14
4 22 3 18 -1 -4 -4 -29 -14 -55 -21 l-48 -14 39 3 c26 1 41 -3 44 -12 3 -10 0
-12 -12 -8 -9 4 -16 2 -16 -3 0 -15 -29 -12 -82 7 -27 9 -48 23 -48 30 0 7 -4
13 -10 13 -5 0 -10 5 -10 10 0 6 10 10 22 10 12 0 19 3 15 6 -12 13 62 106
107 134 25 16 46 35 46 41 0 6 -14 -1 -31 -15 -17 -14 -36 -26 -42 -26 -6 0
-21 -10 -34 -22 -27 -26 -44 -16 -19 11 16 17 16 20 1 28 -15 9 -38 45 -70
112 -10 21 -18 67 -20 118 -3 82 -15 131 -15 63 0 -59 -20 -19 -31 61 -12 81
-19 101 -19 50 0 -19 -4 -30 -10 -26 -5 3 -10 21 -10 38 0 18 -4 38 -9 46 -5
8 -7 -4 -4 -31 6 -54 -7 -67 -36 -37 l-20 21 6 -21 c8 -33 -33 -28 -51 7 -17
31 -22 12 -5 -21 10 -21 10 -21 -5 -3 -9 11 -16 32 -16 47 0 22 6 28 31 33 17
3 35 3 40 0 5 -3 10 1 10 8 1 7 5 0 9 -17 l8 -30 1 36 c1 31 5 37 26 41 21 5
25 1 26 -21 l2 -26 4 25 c9 57 14 70 30 70 13 0 14 -3 5 -12 -7 -7 -11 -26
-11 -42 2 -29 2 -29 6 -5 5 36 33 60 60 53 18 -5 21 -12 18 -38 -4 -27 -3 -26
6 7 6 20 17 37 24 37 7 0 18 7 25 15 16 20 17 20 55 -14z m-1280 -102 c7 13
33 -10 51 -44 9 -17 9 -26 0 -37 -6 -8 7 6 29 29 27 30 48 43 66 43 38 0 42
-10 17 -39 -22 -25 -22 -25 -1 -8 23 20 58 20 58 -1 0 -11 -91 -82 -106 -82
-3 0 -9 9 -12 20 -3 11 -13 20 -23 20 -16 0 -15 -3 4 -23 12 -13 22 -29 22
-35 0 -7 4 -12 9 -12 5 0 12 -7 15 -16 5 -14 4 -15 -9 -4 -13 10 -15 9 -15 -8
0 -11 -17 -35 -37 -52 -22 -19 -28 -27 -14 -20 19 10 32 9 67 -5 48 -18 74
-59 74 -116 l0 -29 -20 20 c-26 26 -80 26 -113 0 l-26 -21 -7 26 c-4 15 -1 31
6 40 10 12 8 24 -11 64 -13 28 -27 47 -31 45 -4 -3 -8 12 -8 33 0 35 -13 63
-30 63 -3 0 -6 -23 -6 -52 -1 -42 3 -56 20 -69 15 -13 23 -14 29 -6 6 8 7 6 4
-5 -3 -9 3 -28 14 -42 17 -22 18 -26 5 -26 -9 0 -16 3 -16 8 -1 4 -12 21 -26
37 -30 35 -21 15 14 -32 25 -34 24 -70 -3 -59 -8 3 -15 1 -15 -4 0 -15 -21
-12 -41 6 -16 14 -17 14 -15 -2 2 -10 18 -23 40 -30 20 -7 44 -20 52 -29 19
-19 38 -20 31 0 -8 20 48 65 82 65 16 0 37 -10 50 -24 19 -20 22 -32 19 -91
l-3 -67 -48 -3 c-37 -2 -61 4 -101 24 -40 20 -53 23 -52 12 1 -20 -51 -48
-104 -55 -47 -6 -70 1 -73 25 -4 23 -33 59 -42 51 -5 -4 -5 -1 -1 6 9 15 -12
84 -24 77 -5 -3 -10 1 -13 7 -2 7 -4 -5 -3 -27 1 -22 7 -50 14 -63 27 -47 3
-78 -200 -263 -105 -96 -257 -234 -337 -306 -80 -73 -148 -133 -152 -133 -15
0 -119 114 -119 130 0 9 23 35 52 58 97 80 133 118 135 143 2 27 36 59 63 59
10 0 28 -12 39 -26 12 -15 21 -22 21 -17 0 5 -6 15 -12 22 -11 10 -2 22 42 64
289 271 352 327 359 323 5 -3 26 -28 47 -56 21 -27 42 -50 47 -50 5 0 -7 20
-27 45 -31 37 -34 45 -19 45 10 0 24 4 32 9 11 7 10 14 -8 40 -30 42 -24 66
15 66 17 0 39 7 49 15 15 13 19 12 31 -5 8 -10 14 -24 15 -29 1 -6 4 0 8 14 4
14 3 40 -2 59 -11 42 -4 94 17 126 9 13 43 38 76 56 60 32 80 56 38 44 -21 -6
-22 -5 -5 8 20 17 22 33 5 40 -8 3 -5 6 6 6 14 1 17 7 13 28 -5 25 -4 26 8 10
8 -12 15 -14 20 -8z m2347 -4 c-2 -15 0 -25 7 -25 7 0 9 -5 6 -11 -4 -5 1 -19
11 -30 16 -18 16 -19 1 -13 -10 4 -19 0 -23 -9 -3 -9 -12 -13 -20 -10 -8 3
-22 -1 -31 -8 -14 -12 -16 -12 -11 1 3 8 -2 22 -11 30 -9 8 -16 27 -16 43 -1
22 4 27 22 27 13 0 23 5 23 11 0 8 4 8 14 0 10 -9 15 -8 20 4 9 23 14 18 8
-10z m-4452 -5 c-9 -16 -8 -22 5 -27 13 -4 14 -8 4 -14 -10 -6 -10 -12 4 -27
17 -19 17 -19 -8 -17 -14 2 -25 0 -25 -3 0 -16 -51 -6 -56 11 -3 9 -9 17 -14
17 -5 0 -5 13 0 29 4 16 6 31 4 33 -2 2 14 3 36 2 22 -1 43 2 46 7 11 18 14 8
4 -11z m3565 -40 c3 -6 -3 -21 -13 -35 -22 -28 -35 -15 -21 23 9 23 24 29 34
12z m140 -71 c4 -6 -2 -21 -14 -33 -15 -16 -23 -41 -27 -87 -4 -35 -13 -75
-21 -88 -11 -17 -13 -36 -8 -70 l7 -46 -24 20 c-12 11 -3 -2 22 -28 24 -26 45
-47 46 -47 1 0 1 6 1 13 -2 24 15 87 24 87 5 0 9 -30 9 -66 0 -61 -1 -65 -17
-53 -9 8 -1 -9 18 -38 20 -29 74 -86 122 -128 47 -42 84 -81 81 -88 -10 -24
-53 -48 -70 -39 -13 7 -12 13 12 43 16 19 19 26 8 17 -11 -10 -32 -18 -45 -18
-40 0 -143 69 -251 165 l-98 89 0 51 c1 27 7 61 15 75 8 14 14 36 14 50 0 24
0 24 -14 -5 -13 -30 -13 -29 -14 28 -2 103 33 148 141 187 63 22 75 23 83 9z
m59 -62 c-3 -10 -9 -57 -14 -103 -6 -74 -21 -118 -33 -103 -3 2 2 45 9 94 8
50 11 98 8 108 -3 10 0 32 7 50 l13 31 8 -30 c4 -16 5 -37 2 -47z m-1439 27
c-14 -20 -25 -41 -25 -45 0 -18 -16 -8 -33 20 l-17 29 38 15 c57 24 64 21 37
-19z m186 -57 c-10 -9 -11 -8 -5 6 3 10 9 15 12 12 3 -3 0 -11 -7 -18z m69
-90 c0 -2 -14 -16 -32 -33 -18 -16 -26 -20 -18 -9 19 27 50 53 50 42z m-820
-57 c0 -5 -4 -10 -10 -10 -5 0 -10 5 -10 10 0 6 5 10 10 10 6 0 10 -4 10 -10z
m-2170 -16 c0 -8 -4 -12 -10 -9 -5 3 -10 10 -10 16 0 5 5 9 10 9 6 0 10 -7 10
-16z m3130 6 c0 -5 -4 -10 -10 -10 -5 0 -10 5 -10 10 0 6 5 10 10 10 6 0 10
-4 10 -10z m94 -69 l30 -31 -57 0 c-56 0 -57 1 -46 22 10 18 9 20 -5 15 -15
-6 -15 -4 1 17 21 27 33 24 77 -23z m-1218 12 c-10 -10 -19 5 -10 18 6 11 8
11 12 0 2 -7 1 -15 -2 -18z m1400 -89 c38 -5 43 -8 57 -47 40 -111 42 -135 14
-252 -14 -61 -29 -142 -33 -182 -4 -43 -14 -85 -26 -104 l-19 -32 -17 24 c-25
36 -54 59 -85 66 -20 4 -25 8 -16 14 9 5 -1 10 -29 15 -23 4 -42 10 -42 15 0
13 69 16 124 5 24 -5 27 -4 16 9 -7 8 -28 15 -46 15 -19 0 -34 4 -34 9 0 5 -8
12 -17 14 -10 3 -3 5 15 6 70 2 16 41 -59 41 -21 0 -39 -4 -39 -9 0 -10 -50
-25 -57 -17 -9 9 63 40 122 52 l60 12 -55 1 c-30 0 -67 -5 -82 -13 -21 -11
-26 -11 -22 -1 6 14 66 43 115 55 l34 8 -32 1 c-17 1 -44 -4 -60 -10 -28 -10
-28 -10 -8 10 11 11 41 31 67 44 26 14 44 28 40 32 -4 5 2 5 12 1 11 -4 40 -3
65 1 l46 7 -44 8 c-81 14 -127 -4 -210 -85 l-73 -72 31 55 c46 83 206 259 255
281 57 26 35 23 -57 -6 -84 -27 -166 -36 -94 -11 20 8 46 20 58 27 22 15 62
19 125 13z m-1091 -36 c4 -3 2 -9 -3 -12 -5 -3 -15 1 -21 8 -10 11 -9 14 3 12
9 -1 18 -5 21 -8z m862 -24 c-3 -3 -12 -4 -19 -1 -8 3 -5 6 6 6 11 1 17 -2 13
-5z m418 -81 c25 -13 55 -5 34 8 -12 8 -11 11 1 19 23 15 45 7 42 -15 -6 -33
-34 -57 -63 -53 -21 3 -25 1 -21 -14 3 -11 -1 -18 -10 -18 -26 0 -46 25 -50
62 -3 31 -2 35 11 25 12 -10 13 -9 3 10 -19 34 -13 40 11 12 12 -15 31 -31 42
-36z m-635 -1 c-14 -9 -51 -41 -82 -72 -45 -44 -58 -52 -58 -37 0 32 117 127
155 126 6 0 -1 -7 -15 -17z m91 1 c-6 -10 -25 -34 -42 -53 -30 -33 -30 -33
-14 -5 29 47 49 74 58 75 4 0 3 -8 -2 -17z m703 -27 l50 -13 -4 -54 c-4 -56
-3 -77 2 -118 3 -21 -3 -27 -38 -37 -64 -19 -90 -34 -73 -45 22 -14 59 -11 53
4 -3 8 12 21 38 33 35 17 47 18 65 9 22 -11 21 -13 -30 -37 -28 -15 -59 -28
-67 -31 -13 -5 -12 -6 1 -6 9 -1 37 10 63 24 26 14 52 25 58 25 7 0 23 10 37
23 22 19 23 19 8 1 -9 -11 -17 -26 -17 -32 0 -9 70 -48 143 -80 15 -7 6 26
-13 43 -21 19 -80 107 -80 119 0 4 18 5 40 1 22 -4 40 -3 40 2 0 5 -19 9 -42
8 -53 0 -85 27 -79 68 3 26 6 27 35 21 54 -12 74 -22 91 -48 23 -34 12 -66
-23 -67 l-27 -1 28 -10 c15 -5 27 -13 27 -17 0 -5 19 -29 43 -55 36 -38 43
-52 41 -79 -2 -17 -1 -24 2 -14 14 47 122 -38 125 -98 l2 -30 4 28 c4 23 7 26
19 16 8 -6 15 -28 15 -48 1 -23 3 -28 6 -13 7 35 27 26 71 -30 42 -56 55 -99
67 -228 3 -36 11 -72 16 -80 7 -11 8 -9 5 10 -13 69 -14 98 -3 129 16 47 37
52 37 10 0 -18 3 -29 7 -26 9 10 59 -81 109 -203 47 -112 60 -123 20 -18 -13
35 -27 71 -31 81 -4 9 -3 17 1 17 14 0 91 -122 114 -179 36 -93 61 -135 108
-184 44 -44 44 -60 1 -37 -11 6 -19 7 -19 1 0 -5 7 -11 15 -15 23 -8 18 -40
-11 -71 l-27 -29 -21 29 c-11 17 -31 41 -43 55 -21 23 -22 24 -23 5 -1 -11
-10 2 -20 30 l-18 50 5 -51 c4 -33 1 -54 -6 -58 -7 -5 -11 8 -12 41 0 26 -9
71 -19 98 l-18 50 6 -63 c3 -43 1 -62 -7 -62 -6 0 -11 19 -12 48 -1 32 -3 40
-7 24 -12 -42 -27 -27 -34 33 -10 75 -16 91 -17 43 -1 -24 -6 -38 -14 -38 -14
0 -110 96 -139 139 -12 17 -18 46 -19 86 0 33 -4 78 -8 100 -9 40 -9 39 -10
-17 -1 -80 -31 -75 -46 7 -7 43 -43 115 -57 115 -5 0 -1 -11 8 -25 28 -44 5
-50 -37 -9 -28 27 -35 40 -26 46 8 5 7 8 -6 8 -32 0 -100 42 -151 92 -27 27
-73 61 -100 75 -58 29 -137 81 -148 97 -4 6 -8 1 -8 -12 0 -22 -3 -23 -42 -17
-31 4 -39 3 -28 -4 13 -9 12 -11 -3 -11 -19 0 -81 -29 -75 -35 2 -2 36 6 77
17 66 18 75 18 89 5 36 -37 -32 -79 -153 -96 -93 -13 -114 -24 -29 -15 48 5
62 3 73 -10 11 -13 9 -21 -18 -55 -49 -62 -99 -101 -129 -101 -21 0 -24 -2
-12 -10 13 -9 10 -14 -15 -35 -30 -25 -122 -61 -131 -52 -3 3 0 41 6 84 7 43
13 94 14 113 1 34 2 35 40 34 24 -1 33 2 25 7 -8 5 -26 9 -42 9 -15 0 -50 11
-77 24 -27 13 -72 30 -99 37 l-49 12 13 44 c14 46 31 73 46 73 13 0 11 -21 -6
-54 -16 -30 -21 -77 -7 -60 5 5 17 30 26 57 11 28 24 47 33 47 10 0 13 -6 9
-17 -10 -25 -20 -103 -13 -103 5 0 47 117 47 132 0 5 -6 8 -12 7 -24 -3 -38 1
-38 11 0 17 36 11 55 -10 13 -14 15 -23 8 -32 -6 -7 -14 -28 -18 -45 -7 -35 6
-43 35 -22 13 9 12 10 -2 5 -21 -6 -22 2 -7 41 l11 28 13 -25 c21 -38 18 -57
-12 -69 l-28 -11 28 5 c15 3 27 1 27 -4 0 -5 -12 -14 -27 -19 -24 -9 -20 -10
22 -6 74 5 116 15 109 25 -3 5 -17 9 -31 9 -32 0 -29 8 45 122 63 99 61 98
145 47 26 -16 45 -24 42 -19 -4 6 -31 24 -60 41 -51 29 -71 50 -58 63 12 12
23 6 37 -21 8 -16 15 -23 16 -17 0 6 -13 28 -30 49 -29 37 -40 62 -21 50 6 -3
6 7 0 27 -5 18 -9 46 -8 63 0 25 2 27 8 10 6 -16 10 -10 15 28 4 29 12 47 21
47 7 0 23 9 36 20 28 23 29 23 93 6z m-1190 -52 c3 -8 2 -12 -4 -9 -6 3 -10
10 -10 16 0 14 7 11 14 -7z m1461 6 c33 0 43 -4 41 -15 -3 -23 -22 -39 -30
-26 -4 6 -15 11 -24 11 -9 0 -34 5 -54 11 -46 12 -52 34 -7 25 17 -3 51 -6 74
-6z m-964 -67 c-22 -43 -50 -82 -51 -71 0 9 60 108 66 108 2 0 -4 -17 -15 -37z
m34 -15 c-53 -60 -59 -66 -49 -46 11 21 73 88 80 88 4 0 -11 -19 -31 -42z
m1320 22 c4 -6 1 -18 -6 -26 -10 -12 -9 -13 5 -8 26 10 48 -14 34 -36 -11 -17
-13 -17 -36 -2 -37 24 -54 25 -41 1 18 -34 70 -108 79 -114 6 -3 15 -16 22
-28 13 -24 12 -24 -58 33 -17 14 -40 32 -51 41 -10 8 -24 14 -29 12 -13 -4
-32 54 -29 88 1 16 7 23 19 21 9 -2 19 4 22 13 7 17 59 21 69 5z m56 -83 c-1
-12 -15 -9 -19 4 -3 6 1 10 8 8 6 -3 11 -8 11 -12z m-1651 -141 c-18 -47 -50
-100 -50 -83 0 27 41 117 51 112 4 -3 4 -16 -1 -29z m70 -46 c-35 -55 -53 -69
-23 -17 37 62 47 76 51 72 3 -2 -10 -27 -28 -55z m390 1 c0 -14 -18 -23 -30
-16 -6 4 -8 11 -5 16 8 12 35 12 35 0z m-60 -11 c0 -5 -4 -10 -9 -10 -6 0 -13
5 -16 10 -3 6 1 10 9 10 9 0 16 -4 16 -10z m-28 -87 c-12 -37 -22 -53 -34 -53
-16 0 -16 4 3 52 26 66 29 72 39 61 5 -4 1 -32 -8 -60z m-37 38 c-4 -9 -11
-35 -18 -58 -8 -30 -16 -43 -29 -43 -22 0 -22 -2 2 63 12 33 26 54 36 54 9 0
13 -6 9 -16z m-390 -69 c-4 -26 -10 -41 -12 -34 -3 7 -2 34 2 60 4 26 10 41
12 34 3 -7 2 -34 -2 -60z m-365 -43 c0 -5 -7 -9 -15 -9 -15 0 -20 12 -9 23 8
8 24 -1 24 -14z m821 1 c60 -11 129 -39 129 -52 0 -11 -14 -10 -26 2 -5 5 -38
16 -72 25 -51 13 -73 14 -114 6 -48 -11 -69 -9 -55 5 5 5 50 18 78 23 4 1 31
-3 60 -9z m91 -81 c26 -12 45 -26 42 -30 -2 -4 -21 1 -42 11 -58 28 -165 44
-203 31 -39 -13 -39 -13 -39 -2 0 29 177 22 242 -10z m1138 -1 c0 -6 -7 -5
-15 2 -8 7 -15 17 -15 22 0 6 7 5 15 -2 8 -7 15 -17 15 -22z m-3952 -27 c7
-46 -6 -71 -37 -71 -33 0 -41 -14 -41 -75 0 -61 8 -75 40 -75 31 0 40 -15 40
-66 l0 -34 -53 0 c-92 0 -127 46 -127 170 0 123 44 184 129 178 40 -3 46 -6
49 -27z m217 4 c32 -31 35 -100 5 -138 -18 -23 -19 -28 -6 -53 8 -15 20 -49
27 -77 13 -53 6 -67 -36 -67 -35 0 -50 18 -67 82 l-16 63 -1 -67 -1 -68 -44 0
-44 0 -8 77 c-7 79 0 245 11 263 3 5 40 10 81 10 66 0 78 -3 99 -25z m155
-151 l0 -175 -47 3 -48 3 -3 160 c-1 87 0 165 2 172 3 8 23 13 51 13 l45 0 0
-176z m205 126 c0 -43 -1 -45 -31 -48 -36 -3 -44 -20 -44 -87 0 -51 8 -62 45
-67 28 -3 30 -6 33 -50 l3 -48 -54 0 c-92 0 -127 47 -127 170 0 78 16 125 52
155 25 21 39 25 77 23 l46 -3 0 -45z m126 -12 l1 -63 20 63 20 62 44 0 c35 0
44 -3 44 -17 0 -27 -28 -114 -45 -140 -9 -13 -11 -23 -6 -23 11 0 51 -119 51
-150 0 -22 -51 -36 -77 -21 -11 6 -24 35 -34 78 l-17 68 -1 -73 -1 -73 -47 3
-48 3 -3 120 c-2 66 0 144 3 173 l6 52 45 0 44 0 1 -62z m347 10 c2 -34 -1
-48 -10 -49 -7 -1 -28 -2 -47 -3 -43 -1 -55 -26 -13 -26 24 0 31 -5 35 -26 7
-41 -3 -63 -31 -66 -14 -2 -27 -9 -30 -15 -2 -9 11 -13 47 -13 l51 0 0 -50 0
-50 -95 0 -95 0 0 175 0 176 93 -3 92 -3 3 -47z m220 0 c-3 -49 -5 -53 -30
-56 l-28 -3 0 -120 0 -119 -50 0 -50 0 0 125 0 125 -25 0 c-23 0 -25 3 -25 50
l0 50 106 0 105 0 -3 -52z m1506 18 c50 -15 79 -34 71 -46 -3 -4 -33 3 -67 17
-63 26 -132 33 -180 20 -22 -6 -28 -4 -28 8 0 20 137 21 204 1z m-586 -21 c17
-14 53 -29 83 -35 62 -12 134 -52 150 -83 11 -20 9 -20 -17 4 -40 37 -59 45
-138 58 -95 16 -136 35 -136 60 0 28 22 26 58 -4z m408 -62 c-11 -11 -19 6
-11 24 8 17 8 17 12 0 3 -10 2 -21 -1 -24z m54 23 c0 -17 -14 -29 -23 -20 -8
8 3 34 14 34 5 0 9 -6 9 -14z m60 -6 c0 -5 -9 -10 -20 -10 -11 0 -20 5 -20 10
0 6 9 10 20 10 11 0 20 -4 20 -10z m50 -10 c0 -5 -7 -10 -15 -10 -8 0 -15 5
-15 10 0 6 7 10 15 10 8 0 15 -4 15 -10z m50 -21 c0 -6 -4 -7 -10 -4 -5 3 -10
11 -10 16 0 6 5 7 10 4 6 -3 10 -11 10 -16z m-256 -198 c-22 -99 -43 -183 -49
-185 -8 -3 21 168 61 363 4 17 8 21 16 13 7 -7 -1 -64 -28 -191z m86 184 c0
-9 -9 -57 -20 -108 -10 -50 -24 -129 -31 -174 -10 -72 -14 -83 -31 -83 -16 0
-19 5 -14 23 3 12 23 97 43 190 21 92 41 167 45 167 5 0 8 -7 8 -15z m56 -2
c-6 -21 -66 -341 -66 -354 0 -5 -9 -9 -21 -9 -16 0 -19 4 -14 18 4 9 16 62 25
117 10 55 24 133 31 173 11 59 16 72 32 72 13 0 17 -5 13 -17z m-165 -34 c-5
-13 -10 -18 -10 -11 -1 9 -10 7 -31 -8 -36 -25 -30 -47 6 -24 33 22 38 14 23
-37 -7 -24 -11 -48 -10 -54 5 -19 -16 9 -43 59 -15 27 -24 52 -19 56 26 24 88
59 91 52 1 -5 -2 -20 -7 -33z m229 34 c0 -5 -13 -75 -29 -158 -38 -196 -71
-385 -71 -409 0 -44 19 4 34 84 61 338 90 479 97 474 13 -8 11 -27 -16 -159
-13 -66 -36 -187 -51 -270 -15 -82 -29 -156 -31 -163 -3 -6 0 -12 5 -12 6 0
16 26 22 58 6 31 15 68 19 82 l9 25 7 -26 c4 -18 -1 -47 -19 -91 -14 -36 -26
-76 -26 -90 0 -32 -14 -43 -63 -52 -21 -4 -54 -18 -75 -33 -33 -23 -43 -24
-97 -18 -33 4 -79 7 -102 6 -63 -2 -93 13 -93 46 0 22 8 33 37 48 20 11 41 20
47 20 6 0 11 5 11 10 1 20 36 62 63 76 15 7 40 24 55 36 36 29 70 29 107 1 16
-12 32 -19 36 -16 3 4 9 53 14 110 5 56 15 132 23 168 8 36 22 109 33 163 15
80 21 97 36 97 10 0 18 -3 18 -7z m66 -68 c-6 -25 -12 -41 -14 -35 -6 16 8 80
17 80 4 0 3 -20 -3 -45z m31 -32 c-3 -38 -10 -79 -16 -93 -9 -22 -9 -20 -6 15
6 72 18 145 23 145 3 0 2 -30 -1 -67z m-50 -55 c-3 -7 -5 -2 -5 12 0 14 2 19
5 13 2 -7 2 -19 0 -25z m-3131 -25 c-10 -10 -19 5 -10 18 6 11 8 11 12 0 2 -7
1 -15 -2 -18z m2448 2 c15 -8 33 -12 38 -9 16 10 48 -37 39 -56 -19 -35 -19
-110 0 -147 16 -32 17 -39 4 -71 -9 -21 -15 -67 -15 -117 0 -60 -4 -86 -14
-94 -18 -15 -50 -1 -66 29 -16 30 -12 34 10 9 l20 -24 -15 30 c-27 54 -40 132
-27 160 7 14 12 38 12 52 0 15 11 43 25 63 20 28 23 43 18 73 -4 30 -8 35 -19
26 -21 -17 -18 -53 2 -45 14 5 15 4 5 -8 -7 -8 -9 -21 -5 -28 4 -7 4 -10 -1
-6 -12 12 -35 -11 -36 -36 -1 -38 -31 78 -33 129 -2 49 8 85 22 85 4 0 20 -7
36 -15z m128 -102 c64 -98 61 -90 39 -96 -24 -6 -65 50 -75 101 -7 42 6 41 36
-5z m-2202 17 c0 -5 -7 -10 -15 -10 -8 0 -15 5 -15 10 0 6 7 10 15 10 8 0 15
-4 15 -10z m-129 -67 c10 -27 23 -56 27 -67 6 -15 13 -5 33 45 23 59 27 64 57
67 l32 3 0 -145 0 -146 -29 0 c-24 0 -29 5 -35 31 -3 17 -6 46 -7 63 0 28 -2
27 -21 -22 -12 -29 -22 -51 -24 -50 -1 2 -12 26 -23 53 l-20 50 0 -62 -1 -63
-35 0 -35 0 0 145 0 145 30 0 c27 0 33 -6 51 -47z m348 -87 c11 -73 21 -138
21 -145 0 -6 -15 -11 -35 -11 -29 0 -36 4 -41 25 -9 34 -44 34 -44 0 0 -23 -4
-25 -40 -25 -37 0 -40 2 -36 23 3 12 13 72 22 132 9 61 18 116 20 123 2 7 23
12 57 12 l54 0 22 -134z m130 72 l20 -63 0 63 1 62 35 0 35 0 0 -144 0 -144
-37 -3 c-35 -4 -38 -2 -39 21 -1 14 -8 41 -17 60 l-15 35 -1 -57 -1 -58 -35 0
-35 0 0 145 0 145 35 0 c33 0 35 -2 54 -62z m283 -53 c9 -60 19 -125 22 -142
5 -33 4 -33 -35 -33 -35 0 -39 3 -39 25 0 33 -37 35 -42 3 -2 -19 -10 -24 -40
-26 -21 -2 -38 0 -38 5 0 4 9 70 21 146 l22 138 56 -3 56 -3 17 -110z m203 75
c0 -33 -2 -35 -40 -40 l-40 -5 0 -59 c0 -42 4 -61 14 -64 11 -4 13 3 8 31 -6
38 6 48 46 39 14 -4 17 -16 17 -73 l0 -68 -34 -7 c-48 -8 -94 4 -111 30 -37
55 -30 192 11 233 20 20 32 24 77 21 l52 -3 0 -35z m185 0 c0 -37 -2 -40 -27
-41 -16 -1 -31 -1 -35 0 -5 0 -8 -5 -8 -13 0 -8 10 -16 23 -18 17 -2 23 -11
25 -35 3 -30 1 -33 -22 -33 -16 0 -26 -6 -26 -15 0 -10 11 -15 35 -15 34 0 35
-1 35 -40 l0 -40 -75 0 -75 0 0 145 0 145 75 0 75 0 0 -40z m178 24 c17 -12
22 -25 22 -61 0 -27 -6 -53 -15 -63 -13 -15 -13 -20 1 -48 8 -17 18 -47 21
-67 6 -35 5 -35 -30 -35 -33 0 -37 3 -46 38 -6 20 -11 42 -11 49 0 6 -4 14 -9
18 -6 3 -7 -17 -4 -50 l6 -55 -42 0 -41 0 0 139 c0 102 3 141 13 144 28 12
114 6 135 -9z m1239 -26 c-3 -8 -6 -5 -6 6 -1 11 2 17 5 13 3 -3 4 -12 1 -19z
m-260 -74 c-3 -3 -13 8 -21 25 -23 43 -19 52 5 13 12 -18 19 -35 16 -38z m250
24 c-3 -8 -6 -5 -6 6 -1 11 2 17 5 13 3 -3 4 -12 1 -19z m141 -7 c10 -6 11
-22 6 -60 -7 -51 -7 -51 -26 -34 -14 13 -35 18 -70 17 -45 0 -49 1 -44 20 3
12 6 29 6 38 0 9 8 19 18 21 30 8 96 7 110 -2z m1796 -136 c11 -8 16 -20 12
-30 -3 -9 -2 -14 2 -11 4 2 23 1 42 -3 23 -5 50 -2 80 9 25 9 51 16 58 14 6
-1 24 -2 38 -3 l25 -1 -21 -27 c-27 -34 -91 -73 -129 -78 -16 -2 -38 -8 -49
-14 -12 -6 -37 -11 -58 -11 -32 0 -35 2 -24 15 7 9 19 14 27 11 19 -8 16 8 -6
28 -15 13 -20 14 -24 4 -4 -10 -8 -10 -16 2 -7 10 -11 11 -11 3 0 -17 -52 -43
-87 -44 -21 -1 -23 -3 -8 -6 30 -7 45 -23 38 -39 -3 -8 1 -14 11 -14 9 0 16 3
16 8 0 4 27 8 60 9 69 2 70 -9 2 -31 -62 -21 -128 -25 -124 -8 1 6 -7 12 -18
12 -15 0 -20 7 -20 25 0 14 0 28 -1 33 0 4 18 14 40 22 23 8 55 26 71 40 25
21 29 30 24 54 -4 19 -2 31 7 37 18 11 21 11 43 -6z m-203 -102 c-11 -24 -14
-25 -22 -11 -5 9 -6 36 -3 60 l7 42 15 -32 c13 -26 13 -36 3 -59z m164 -33
c-3 -5 -11 -10 -16 -10 -6 0 -7 5 -4 10 3 6 11 10 16 10 6 0 7 -4 4 -10z"/>
<path d="M3943 2688 c-19 -25 -26 -41 -15 -34 5 3 12 1 14 -6 5 -15 37 -3 45
18 3 9 0 20 -8 25 -19 12 -25 11 -36 -3z"/>
<path d="M3950 2581 c24 -20 40 -26 40 -16 0 2 -15 12 -32 20 l-33 16 25 -20z"/>
<path d="M2630 2313 c8 -3 24 -10 35 -16 18 -9 19 -9 6 6 -7 10 -23 17 -35 16
-14 0 -16 -2 -6 -6z"/>
<path d="M3121 2266 c10 -9 89 -46 89 -41 0 5 -75 45 -86 45 -4 0 -5 -2 -3 -4z"/>
<path d="M3190 2193 c19 -15 60 -50 90 -78 37 -34 46 -39 28 -17 -31 37 -67
68 -118 101 l-35 22 35 -28z"/>
<path d="M3240 2195 c13 -14 26 -25 28 -25 3 0 -5 11 -18 25 -13 14 -26 25
-28 25 -3 0 5 -11 18 -25z"/>
<path d="M3852 2270 c0 -14 2 -19 5 -12 2 6 2 18 0 25 -3 6 -5 1 -5 -13z"/>
<path d="M3859 2212 c-3 -20 -2 -29 4 -23 5 5 7 19 5 32 -3 20 -5 19 -9 -9z"/>
<path d="M3651 2176 c-1 -34 2 -47 9 -40 7 7 7 24 1 50 l-9 39 -1 -49z"/>
<path d="M3707 2060 c3 -36 12 -73 20 -82 9 -9 19 -32 23 -50 8 -32 8 -32 9
11 1 31 -4 47 -16 56 -10 8 -23 39 -30 72 l-12 58 6 -65z"/>
<path d="M3871 1851 c-6 -10 -24 -24 -41 -31 -17 -7 -29 -15 -26 -17 8 -8 65
27 76 47 6 11 8 20 6 20 -3 0 -10 -8 -15 -19z"/>
<path d="M3770 1660 c-9 -6 -10 -10 -3 -10 6 0 15 5 18 10 8 12 4 12 -15 0z"/>
<path d="M2570 2055 c-6 -8 -10 -19 -8 -26 2 -6 9 0 16 15 13 29 10 33 -8 11z"/>
<path d="M2450 1900 c6 -11 13 -20 16 -20 2 0 0 9 -6 20 -6 11 -13 20 -16 20
-2 0 0 -9 6 -20z"/>
<path d="M2500 1901 c5 -11 15 -23 21 -27 6 -3 3 5 -6 20 -20 30 -30 35 -15 7z"/>
<path d="M2468 1803 c13 -13 28 -23 35 -23 7 0 3 6 -8 12 -11 6 -27 16 -35 22
-9 6 -5 1 8 -11z"/>
<path d="M1781 1317 c-13 -21 -12 -21 5 -5 10 10 16 20 13 22 -3 3 -11 -5 -18
-17z"/>
<path d="M1694 1306 c11 -9 31 -16 45 -15 24 1 24 2 -5 8 -17 4 -37 11 -45 15
-8 4 -5 0 5 -8z"/>
<path d="M4041 1944 c0 -11 3 -14 6 -6 3 7 2 16 -1 19 -3 4 -6 -2 -5 -13z"/>
<path d="M3980 1758 c0 -9 12 -24 28 -33 l27 -18 -25 29 c-14 16 -26 31 -27
33 -2 2 -3 -3 -3 -11z"/>
<path d="M4125 1690 c10 -11 20 -20 22 -20 2 0 -1 9 -7 20 -6 11 -16 20 -22
20 -6 0 -3 -9 7 -20z"/>
<path d="M3434 1226 c1 -8 5 -18 8 -22 4 -3 5 1 4 10 -1 8 -5 18 -8 22 -4 3
-5 -1 -4 -10z"/>
<path d="M3770 1430 c-19 -11 -46 -19 -60 -20 -14 0 -31 -4 -38 -9 -9 -5 -2
-8 20 -7 29 1 128 41 128 52 0 8 -15 3 -50 -16z"/>
<path d="M3720 1371 c-22 -7 -21 -8 15 -13 25 -3 47 0 60 9 18 12 17 13 -15
12 -19 -1 -46 -4 -60 -8z"/>
<path d="M3822 1248 c-24 -11 -42 -21 -40 -22 1 -2 23 0 48 4 25 4 39 8 31 9
-11 1 -11 4 -1 16 15 18 16 18 -38 -7z"/>
<path d="M3796 1190 c6 -6 21 -6 39 -1 30 9 30 9 -9 10 -26 1 -37 -2 -30 -9z"/>
<path d="M3688 1133 c7 -3 16 -2 19 1 4 3 -2 6 -13 5 -11 0 -14 -3 -6 -6z"/>
<path d="M4030 1096 c-5 -15 -10 -35 -10 -44 1 -9 7 1 15 23 16 44 11 63 -5
21z"/>
<path d="M3751 1054 c-19 -13 -29 -24 -23 -24 6 0 24 11 39 25 35 31 28 31
-16 -1z"/>
<path d="M3688 1023 c7 -3 16 -2 19 1 4 3 -2 6 -13 5 -11 0 -14 -3 -6 -6z"/>
<path d="M3638 1013 c6 -2 18 -2 25 0 6 3 1 5 -13 5 -14 0 -19 -2 -12 -5z"/>
<path d="M3573 1003 c9 -2 23 -2 30 0 6 3 -1 5 -18 5 -16 0 -22 -2 -12 -5z"/>
<path d="M4183 993 c9 -2 23 -2 30 0 6 3 -1 5 -18 5 -16 0 -22 -2 -12 -5z"/>
<path d="M4417 945 c3 -27 9 -57 14 -65 10 -19 -1 67 -12 95 -4 12 -5 -1 -2
-30z"/>
<path d="M3516 967 c8 -5 27 -4 42 1 25 8 23 9 -15 8 -28 0 -37 -3 -27 -9z"/>
<path d="M4188 963 c7 -3 16 -2 19 1 4 3 -2 6 -13 5 -11 0 -14 -3 -6 -6z"/>
<path d="M4185 920 c-3 -5 -2 -10 4 -10 5 0 13 5 16 10 3 6 2 10 -4 10 -5 0
-13 -4 -16 -10z"/>
<path d="M3545 910 c-3 -5 -27 -10 -53 -11 l-47 -1 38 -10 c20 -6 43 -7 50 -4
6 4 23 13 37 21 24 14 24 15 3 15 -12 0 -25 -4 -28 -10z"/>
<path d="M4351 763 c-1 -23 3 -44 7 -47 4 -2 6 12 4 32 -5 56 -10 62 -11 15z"/>
<path d="M4432 700 c0 -14 2 -19 5 -12 2 6 2 18 0 25 -3 6 -5 1 -5 -13z"/>
<path d="M4622 588 c18 -31 35 -54 36 -53 7 6 -30 73 -49 91 -13 11 -8 -2 13
-38z"/>
<path d="M4726 547 c3 -10 9 -15 12 -12 3 3 0 11 -7 18 -10 9 -11 8 -5 -6z"/>
<path d="M4742 495 c0 -16 2 -22 5 -12 2 9 2 23 0 30 -3 6 -5 -1 -5 -18z"/>
<path d="M660 829 c0 -24 23 -21 28 4 2 10 -3 17 -12 17 -10 0 -16 -9 -16 -21z"/>
<path d="M2965 204 c-18 -16 -22 -22 -9 -15 18 9 53 42 43 41 -2 -1 -17 -12
-34 -26z"/>
<path d="M3123 110 c-43 -40 -81 -57 -51 -22 8 9 18 24 22 32 4 8 0 6 -9 -5
-9 -11 -25 -30 -35 -42 -23 -27 -22 -28 27 -8 21 8 51 31 66 50 36 45 32 44
-20 -5z"/>
<path d="M2988 53 c6 -2 18 -2 25 0 6 3 1 5 -13 5 -14 0 -19 -2 -12 -5z"/>
<path d="M2652 590 c0 -14 2 -19 5 -12 2 6 2 18 0 25 -3 6 -5 1 -5 -13z"/>
<path d="M2710 372 c0 -12 19 -26 26 -19 2 2 -2 10 -11 17 -9 8 -15 8 -15 2z"/>
<path d="M727 393 c-11 -10 -8 -63 3 -63 6 0 10 16 10 35 0 36 -2 40 -13 28z"/>
<path d="M1141 378 c0 -27 4 -48 9 -48 11 0 11 21 0 65 -7 27 -8 25 -9 -17z"/>
<path d="M1710 420 c0 -11 7 -20 15 -20 8 0 15 9 15 20 0 11 -7 20 -15 20 -8
0 -15 -9 -15 -20z"/>
<path d="M4920 265 c-7 -9 -11 -17 -9 -20 3 -2 10 5 17 15 14 24 10 26 -8 5z"/>
<path d="M4928 223 c7 -3 16 -2 19 1 4 3 -2 6 -13 5 -11 0 -14 -3 -6 -6z"/>
</g>
</svg>
